<svg xmlns="http://www.w3.org/2000/svg" width="1024" height="1024" viewBox="0 0 1024 1024">
  <defs>
    <linearGradient id="bg" x1="0" y1="0" x2="1" y2="1">
      <stop offset="0%" stop-color="#0a1024"/>
      <stop offset="60%" stop-color="#152042"/>
      <stop offset="100%" stop-color="#1b2f55"/>
    </linearGradient>
    <radialGradient id="halo" cx="70%" cy="18%" r="62%">
      <stop offset="0%" stop-color="#34d399" stop-opacity="0.38"/>
      <stop offset="100%" stop-color="#34d399" stop-opacity="0"/>
    </radialGradient>
    <linearGradient id="sheet" x1="0" y1="0" x2="0" y2="1">
      <stop offset="0%" stop-color="#f8fafc"/>
      <stop offset="100%" stop-color="#dbe7ff"/>
    </linearGradient>
    <linearGradient id="ink" x1="0" y1="0" x2="1" y2="1">
      <stop offset="0%" stop-color="#0f172a"/>
      <stop offset="100%" stop-color="#1e293b"/>
    </linearGradient>
    <linearGradient id="accent" x1="0" y1="0" x2="1" y2="0">
      <stop offset="0%" stop-color="#22d3ee"/>
      <stop offset="100%" stop-color="#34d399"/>
    </linearGradient>
    <filter id="shadow" x="-20%" y="-20%" width="140%" height="140%">
      <feDropShadow dx="0" dy="20" stdDeviation="18" flood-color="#020617" flood-opacity="0.45"/>
    </filter>
  </defs>

  <rect width="1024" height="1024" rx="228" fill="#050914"/>
  <rect x="74" y="74" width="876" height="876" rx="196" fill="url(#bg)"/>
  <rect x="74" y="74" width="876" height="876" rx="196" fill="url(#halo)"/>

  <g filter="url(#shadow)">
    <path d="M304 222h300l116 116v390c0 45-35 80-80 80H304c-45 0-80-35-80-80V302c0-45 35-80 80-80z" fill="url(#sheet)"/>
    <path d="M604 222v86c0 40 32 72 72 72h44z" fill="#c7d7f8"/>
  </g>

  <rect x="284" y="408" width="220" height="22" rx="11" fill="#d3def6"/>
  <rect x="284" y="452" width="292" height="22" rx="11" fill="#d3def6"/>

  <path d="M304 742V500h52l108 132 108-132h52v242h-56V589l-102 122h-4L360 589v153z" fill="url(#ink)"/>
  <rect x="284" y="776" width="376" height="20" rx="10" fill="url(#accent)"/>
</svg>
